<svg xmlns="http://www.w3.org/2000/svg" viewBox="0 0 179.4 74.43"><defs><style>.cls-1{fill:#0058be;}.cls-2{fill:#f2cc00;}.cls-3{fill:#ff4f00;}.cls-4{fill:#2d3438;}</style></defs><g id="Calque_2" data-name="Calque 2"><g id="OBJECTS"><path class="cls-1" d="M67.53,52.59a18.15,18.15,0,0,1-7.37-7.06,21,21,0,0,1-2.68-10.8A20.69,20.69,0,0,1,60.19,24a18.42,18.42,0,0,1,7.41-7,22.43,22.43,0,0,1,10.63-2.47c5.4,0,0,22.17,0,22.17S94.12,20.48,96.26,24A20.36,20.36,0,0,1,99,34.73,20.89,20.89,0,0,1,96.26,45.5a18.36,18.36,0,0,1-7.45,7.09,24.15,24.15,0,0,1-21.28,0Z"/><path class="cls-2" d="M91.28,74H65.17A6.21,6.21,0,0,1,59,67.83h0a6.21,6.21,0,0,1,6.21-6.21H91.28a6.21,6.21,0,0,1,6.21,6.21h0A6.21,6.21,0,0,1,91.28,74Z"/><circle class="cls-3" cx="86.59" cy="21.04" r="4.2"/><path class="cls-4" d="M150.75,44.72h.74a.64.64,0,0,1,.64.69.7.7,0,0,1-.69.79c-1.58,0-3.25-.2-5.27-.2-1.73,0-3.55.15-5.47.2-1.77,0-2.31-1.18-2.31-3.3,0-4.43.29-9.8.15-14.67,0-1.92-.55-3-1.78-3-1.47,0-2.46.69-2.75,5.07-.15,2.17-.2,4.34-.2,6.55,0,1.68.05,3.5.1,5.17.05,2,.19,2.71,1.23,2.71.54,0,1.13-.1,1.43-.1.69,0,.78.35.78.79a.72.72,0,0,1-.78.79c-1.73,0-5.76-.2-8.33-.2-2.11,0-5,.2-6.64.2-.35,0-.59-.15-.59-.69a.61.61,0,0,1,.59-.69c.88,0,1-.89,1.08-3s.15-3.7.15-5.81q0-4-.15-8c-.05-2.36-.64-2.91-1.72-2.91-1.58,0-2.51.89-2.76,5.72-.1,2.06-.1,4-.1,6,0,1.73.05,3.3.1,5,.1,2.06.2,3,1.43,3,.49,0,.64.3.64.69s-.3.69-.64.69c-1.13,0-5.32-.2-8-.2-2.12,0-4.87.2-6.25.2a.75.75,0,0,1-.79-.79.7.7,0,0,1,.74-.74c.15,0,.54.1.79.1.64,0,.74-1.08.78-2,0-3.94.1-8.27.1-12.21,0-2.71,0-5.27-.1-7.29s-.24-2.41-1.08-2.41c-.44,0-.69.05-.88.05-.6,0-.69-.39-.69-.79a.73.73,0,0,1,.83-.79c1.48,0,3.75.2,5.22.2,1.77,0,3.35-.2,4.93-.2,1.23,0,1.47.59,1.47,1.58,0,1.77-.14,3.79-.14,6.45a.54.54,0,0,0,.59.59.58.58,0,0,0,.64-.54c.54-7.39,3.54-8.81,7.83-8.81,4.92,0,6.59,2.7,6.79,8.86a.63.63,0,0,0,.54.69c.3,0,.49-.25.59-.69.4-6.26,2.76-8.86,8.18-8.86,6,0,8,2.85,8,9.5,0,3.35-.34,9.85-.34,13.54C149.42,43.84,149.57,44.72,150.75,44.72Z"/><path class="cls-4" d="M166.75,46.94c-7.34,0-13.84-3-13.84-13.54,0-10.89,6-14.77,14.13-14.77,9.31,0,12.06,4.23,12.06,9.4,0,3.35-1.52,5.66-9.25,5.66-3.6,0-5.37.4-5.37,2.27s1.87,2.95,5.81,2.95c4.09,0,7.88-1.28,7.88-4.73,0-.49.29-.69.59-.69a.61.61,0,0,1,.64.69C179.4,43.29,176.05,46.94,166.75,46.94Zm-2.66-18a20.24,20.24,0,0,0,.14,2.7,1.09,1.09,0,0,0,1.19.84c1.18,0,3.94-1,3.94-8.12,0-3.06-.69-4.19-2.22-4.19C164.92,20.15,164.09,22.81,164.09,28.92Z"/><path class="cls-4" d="M28.09,71.46c.6,0,1.46-.09,1.72-.09A1.21,1.21,0,0,1,31,72.67,1.26,1.26,0,0,1,29.81,74c-3.27,0-9.48-.17-14.56-.17-3.79,0-9.39.17-12,.17-.77,0-1.12-.68-1.12-1.37s.35-1.3,1.12-1.3c.18,0,.87.09,1.21.09,1.29,0,1.55-1.72,1.64-4.39.08-7.5.17-14.39.17-21.11,0-7.59-.09-15.08-.26-22.67C5.86,20,5.51,18.9,3.79,18.9c-.6,0-2,.26-2.41.26A1.23,1.23,0,0,1,0,17.78a1.41,1.41,0,0,1,1.38-1.55C11.29,16.23,17.75,14,23,14c2.24,0,2.75.86,2.75,2.93,0,4.13-3,14.22-3,23.61,0,.69.34,1.12,1.2,1.12.61,0,.95-.52,1-1.12.6-10.6,4-14.82,14.65-14.82s13.87,5.51,13.87,17.06c0,6.12-.78,17.92-.78,23.52,0,3.53.52,5.17,2.67,5.17.26,0,.86-.09,1-.09a1.22,1.22,0,0,1,1.2,1.38A1.18,1.18,0,0,1,56.44,74C53.51,74,49.8,73.61,46,73.61c-2.76,0-5.6.43-8.61.43-3.19,0-4.14-2.24-4.14-9.39,0-7.67.69-17.14.69-22.83,0-2.93-1-4.65-3.19-4.65-2.76,0-4.39,1.72-4.74,10.08-.26,4-.34,9.3-.34,14.21,0,2.07,0,4.05.08,5.61C26,70.17,26.45,71.46,28.09,71.46Z"/><path class="cls-4" d="M2.42,5.79c-1.14,0-1.94-.63-2-1.57h.79a1.05,1.05,0,0,0,1.17,1c.72,0,1.14-.41,1.14-1C3.56,2.7.5,3.67.5,1.57.5.63,1.25,0,2.37,0A1.7,1.7,0,0,1,4.25,1.45H3.44A1,1,0,0,0,2.34.63c-.61,0-1.09.3-1.09.91,0,1.47,3.06.56,3.06,2.65A1.7,1.7,0,0,1,2.42,5.79Z"/><path class="cls-4" d="M6.66.07h.79l1.23,4.8L10.05.07h.83l1.3,4.79L13.42.07h.8L12.58,5.73h-.83L10.43,1.18,9.07,5.73H8.25Z"/><path class="cls-4" d="M19.78.67h-2.3v1.9h2.06v.61H17.48V5.12h2.3v.61h-3V.07h3Z"/><path class="cls-4" d="M25.66.67H23.35v1.9h2.06v.61H23.35V5.12h2.31v.61H22.61V.07h3.05Z"/><path class="cls-4" d="M28.13.07H32v.6H30.42V5.73h-.74V.67H28.13Z"/><path class="cls-4" d="M108.41,62.27h-1.09v2.36h-.74V59h1.83c1.33,0,2,.73,2,1.66S109.81,62.27,108.41,62.27Zm0-.61c.84,0,1.2-.4,1.2-1s-.36-1.05-1.2-1.05h-1.09v2.08Z"/><path class="cls-4" d="M116.91,63.37h-2.47L114,64.63h-.78l2-5.63h.85l2,5.63h-.78Zm-1.24-3.46-1,2.86h2Z"/><path class="cls-4" d="M123.14,59c1.33,0,2,.74,2,1.66a1.6,1.6,0,0,1-1.35,1.63l1.42,2.37h-.88l-1.35-2.32h-.89v2.32h-.74V59Zm0,.61h-1.09v2.14h1.09c.83,0,1.2-.45,1.2-1.09S124,59.58,123.14,59.58Z"/><path class="cls-4" d="M136.31,63.37h-2.47l-.45,1.26h-.78l2-5.63h.85l2,5.63h-.78Zm-1.23-3.46-1,2.86h2Z"/><path class="cls-4" d="M140.7,59h.74v3.58a1.3,1.3,0,0,0,1.4,1.49c.83,0,1.38-.45,1.38-1.49V59H145v3.57a2.13,2.13,0,1,1-4.26,0Z"/><path class="cls-4" d="M150.3,59c1.33,0,2,.74,2,1.66a1.6,1.6,0,0,1-1.35,1.63l1.42,2.37h-.88l-1.35-2.32h-.9v2.32h-.73V59Zm0,.61h-1.09v2.14h1.09c.84,0,1.2-.45,1.2-1.09S151.15,59.58,150.3,59.58Z"/><path class="cls-4" d="M158.26,64.68a2.89,2.89,0,1,1,2.84-2.88A2.79,2.79,0,0,1,158.26,64.68Zm0-.64a2.25,2.25,0,1,0-2.09-2.24A2.06,2.06,0,0,0,158.26,64Z"/><path class="cls-4" d="M166.18,59c1.33,0,2,.74,2,1.66a1.6,1.6,0,0,1-1.35,1.63l1.42,2.37h-.88L166,62.31h-.89v2.32h-.74V59Zm0,.61h-1.09v2.14h1.09c.83,0,1.2-.45,1.2-1.09S167,59.58,166.18,59.58Z"/><path class="cls-4" d="M174.61,59.57H172.3v1.89h2.06v.61H172.3V64h2.31v.61h-3.05V59h3.05Z"/><path class="cls-4" d="M109.93,73.12h-2.47L107,74.38h-.78l2-5.63h.85l2,5.63h-.78Zm-1.24-3.46-1,2.86h2Z"/><path class="cls-4" d="M115.48,74.43c-1.14,0-1.94-.63-2-1.56h.79a1,1,0,0,0,1.17.94c.71,0,1.13-.41,1.13-.94,0-1.53-3.06-.55-3.06-2.66,0-.93.76-1.56,1.88-1.56a1.69,1.69,0,0,1,1.87,1.45h-.81a1,1,0,0,0-1.09-.82c-.61,0-1.09.3-1.09.91,0,1.46,3,.55,3,2.65A1.69,1.69,0,0,1,115.48,74.43Z"/><path class="cls-4" d="M121.87,74.43c-1.14,0-1.94-.63-2-1.56h.79a1,1,0,0,0,1.17.94c.71,0,1.14-.41,1.14-.94,0-1.53-3.06-.55-3.06-2.66,0-.93.75-1.56,1.87-1.56a1.7,1.7,0,0,1,1.88,1.45h-.82a1,1,0,0,0-1.09-.82c-.61,0-1.09.3-1.09.91,0,1.46,3,.55,3,2.65A1.69,1.69,0,0,1,121.87,74.43Z"/><path class="cls-4" d="M129,74.43a2.89,2.89,0,1,1,2.85-2.89A2.79,2.79,0,0,1,129,74.43Zm0-.64A2.25,2.25,0,1,0,127,71.54,2.07,2.07,0,0,0,129,73.79Z"/><path class="cls-4" d="M137,68.65a2.66,2.66,0,0,1,2.62,1.71h-.89A1.76,1.76,0,0,0,137,69.3a2.25,2.25,0,0,0,0,4.48,1.77,1.77,0,0,0,1.73-1h.89a2.66,2.66,0,0,1-2.62,1.7,2.89,2.89,0,0,1,0-5.78Z"/><path class="cls-4" d="M142.38,68.72h.73v5.66h-.73Z"/><path class="cls-4" d="M149.34,73.12h-2.46l-.46,1.26h-.78l2.05-5.63h.85l2,5.63h-.78Zm-1.23-3.46-1,2.86h2Z"/><path class="cls-4" d="M152.75,68.72h3.83v.6H155v5.06h-.74V69.32h-1.55Z"/><path class="cls-4" d="M159.12,68.72h.74v5.66h-.74Z"/><path class="cls-4" d="M165.31,74.43a2.89,2.89,0,1,1,2.84-2.89A2.8,2.8,0,0,1,165.31,74.43Zm0-.64a2.25,2.25,0,1,0-2.09-2.25A2.07,2.07,0,0,0,165.31,73.79Z"/><path class="cls-4" d="M175.2,68.71v5.67h-.74l-3-4.51v4.51h-.74V68.71h.74l3,4.5v-4.5Z"/></g></g></svg>